<?xml version="1.0" encoding="utf-8"?>
<!-- Generator: Adobe Illustrator 18.1.1, SVG Export Plug-In . SVG Version: 6.00 Build 0)  -->
<svg version="1.1" xmlns="http://www.w3.org/2000/svg" xmlns:xlink="http://www.w3.org/1999/xlink" x="0px" y="0px"
	 viewBox="0 0 283.5 118.7" enable-background="new 0 0 283.5 118.7" xml:space="preserve">
<g id="RZ">
	<polygon fill="#FFA300" points="283.5,0 270.4,48.9 221.5,48.9 234.6,0 	"/>
	<path fill="#001489" d="M137.6,0l10.3,36h0.2l9.6-36h9.8l-13.1,48.9h-12.3l-10.5-36.6h-0.2L121,48.9h-12.3L95.6,0h9.8l9.6,36h0.2
		l10.3-36H137.6z M0,68.4h3.9l12.7,35h0.1l12.6-35h3.9l-14.5,39.1h-4.3L0,68.4z M53.3,91.4c0-1.3-0.3-2.6-0.7-3.8
		c-0.4-1.2-1-2.3-1.8-3.2c-0.8-0.9-1.7-1.7-2.8-2.2c-1.1-0.6-2.3-0.9-3.7-0.9c-1.4,0-2.7,0.3-3.8,0.9c-1.1,0.5-2,1.3-2.8,2.2
		c-0.8,0.9-1.4,2-1.9,3.2c-0.4,1.2-0.7,2.4-0.9,3.7H53.3z M35.1,94.3c0,1.2,0.2,2.5,0.5,3.9c0.4,1.3,0.9,2.5,1.7,3.6
		c0.8,1.1,1.7,1.9,2.9,2.6c1.2,0.7,2.6,1,4.2,1c2.5,0,4.5-0.7,5.9-2c1.4-1.3,2.4-3.1,3-5.3h3.4c-0.7,3.2-2.1,5.7-4.1,7.4
		c-1.9,1.8-4.7,2.6-8.3,2.6c-2.2,0-4.2-0.4-5.8-1.1c-1.6-0.8-2.9-1.9-3.9-3.2c-1-1.4-1.8-3-2.3-4.8c-0.5-1.8-0.7-3.7-0.7-5.7
		c0-1.9,0.2-3.7,0.7-5.5c0.5-1.8,1.3-3.4,2.3-4.8c1-1.4,2.3-2.6,3.9-3.4c1.6-0.9,3.6-1.3,5.8-1.3c2.3,0,4.2,0.5,5.8,1.4
		c1.6,0.9,2.9,2.1,3.9,3.6c1,1.5,1.8,3.2,2.2,5.1c0.4,1.9,0.6,3.8,0.5,5.8H35.1z M62.9,79.2h3.2v6.6h0.1c0.9-2.3,2.2-4.1,4.1-5.3
		c1.9-1.2,4.1-1.8,6.6-1.7v3.4c-1.6-0.1-3,0.1-4.3,0.7c-1.3,0.5-2.4,1.2-3.3,2.1c-0.9,0.9-1.6,2-2.1,3.3c-0.5,1.2-0.8,2.6-0.8,4.1
		v15.1h-3.4V79.2z M97.3,87.5c0-1.1-0.3-2-0.7-2.7c-0.4-0.8-0.9-1.5-1.6-2c-0.7-0.5-1.4-0.9-2.3-1.1c-0.9-0.3-1.8-0.4-2.8-0.4
		c-0.8,0-1.6,0.1-2.4,0.3c-0.8,0.1-1.5,0.4-2.1,0.8c-0.7,0.4-1.2,0.9-1.6,1.5c-0.4,0.6-0.6,1.4-0.6,2.3c0,0.8,0.2,1.4,0.5,2
		c0.4,0.5,0.9,0.9,1.5,1.3c0.6,0.4,1.2,0.7,1.9,0.9c0.7,0.2,1.3,0.4,1.9,0.5l4.6,1c1,0.1,2,0.4,2.9,0.8c1,0.4,1.8,0.9,2.6,1.5
		c0.8,0.6,1.4,1.4,1.9,2.3c0.5,0.9,0.7,2,0.7,3.2c0,1.5-0.3,2.8-1,3.9c-0.7,1.1-1.6,1.9-2.7,2.6c-1.1,0.7-2.3,1.1-3.6,1.4
		c-1.4,0.3-2.7,0.4-4,0.4c-3.3,0-6-0.8-8.1-2.4c-2-1.6-3.2-4.1-3.5-7.6h3.4c0.1,2.3,1,4.1,2.5,5.3c1.6,1.2,3.5,1.8,5.8,1.8
		c0.8,0,1.7-0.1,2.6-0.3c0.9-0.2,1.8-0.5,2.5-0.9c0.8-0.4,1.4-1,1.9-1.6c0.5-0.7,0.8-1.5,0.8-2.5c0-0.8-0.2-1.5-0.5-2.1
		c-0.3-0.6-0.8-1.1-1.4-1.4c-0.6-0.4-1.3-0.7-2-1c-0.7-0.3-1.5-0.5-2.2-0.7l-4.4-1c-1.1-0.3-2.2-0.6-3.1-1c-0.9-0.4-1.8-0.9-2.5-1.4
		c-0.7-0.6-1.2-1.3-1.6-2.1c-0.4-0.8-0.6-1.9-0.6-3.1c0-1.4,0.3-2.6,0.9-3.7c0.7-1,1.5-1.8,2.5-2.5c1-0.6,2.2-1.1,3.4-1.4
		c1.3-0.3,2.5-0.4,3.8-0.4c1.4,0,2.7,0.2,3.9,0.5c1.2,0.4,2.3,0.9,3.2,1.7c0.9,0.8,1.7,1.7,2.2,2.8c0.5,1.1,0.9,2.5,0.9,4H97.3z
		 M119.2,81.3c-1.6,0-3.1,0.3-4.3,1c-1.2,0.7-2.3,1.6-3.1,2.7c-0.8,1.1-1.4,2.4-1.9,3.9c-0.4,1.4-0.6,2.9-0.6,4.4
		c0,1.5,0.2,3,0.6,4.4c0.4,1.4,1.1,2.7,1.9,3.8c0.8,1.1,1.9,2,3.1,2.7c1.2,0.7,2.7,1,4.3,1c1.6,0,3.1-0.3,4.3-1
		c1.2-0.7,2.3-1.6,3.1-2.7c0.8-1.1,1.5-2.4,1.9-3.8c0.4-1.5,0.7-2.9,0.7-4.4c0-1.5-0.2-3-0.7-4.4c-0.4-1.5-1-2.8-1.9-3.9
		c-0.8-1.1-1.8-2-3.1-2.7C122.3,81.7,120.9,81.3,119.2,81.3z M119.2,78.4c2.2,0,4.1,0.4,5.7,1.2c1.7,0.8,3.1,1.9,4.2,3.2
		c1.1,1.4,2,2.9,2.6,4.8c0.6,1.8,0.9,3.7,0.9,5.7c0,2-0.3,4-0.9,5.8c-0.6,1.8-1.4,3.4-2.6,4.7c-1.1,1.4-2.5,2.4-4.2,3.2
		c-1.6,0.8-3.5,1.1-5.7,1.1c-2.2,0-4.1-0.4-5.7-1.1c-1.6-0.8-3-1.9-4.2-3.2c-1.1-1.3-2-2.9-2.6-4.7c-0.6-1.8-0.9-3.8-0.9-5.8
		c0-2,0.3-4,0.9-5.7c0.6-1.8,1.4-3.4,2.6-4.8c1.1-1.3,2.5-2.4,4.2-3.2C115.1,78.8,117.1,78.4,119.2,78.4z M138.2,79.2h3.2v6.6h0.1
		c0.9-2.3,2.2-4.1,4-5.3c1.9-1.2,4.1-1.8,6.6-1.7v3.4c-1.6-0.1-3,0.1-4.3,0.7c-1.3,0.5-2.4,1.2-3.3,2.1c-0.9,0.9-1.6,2-2.1,3.3
		c-0.5,1.2-0.8,2.6-0.8,4.1v15.1h-3.4V79.2z M179.6,105.2c0,2.1-0.2,4-0.7,5.6c-0.4,1.7-1.1,3.1-2.1,4.3c-1,1.2-2.3,2.1-3.9,2.7
		c-1.6,0.6-3.5,0.9-5.8,0.9c-1.4,0-2.8-0.2-4.2-0.5c-1.4-0.3-2.6-0.8-3.7-1.5c-1.1-0.7-2-1.6-2.7-2.7c-0.7-1.1-1.1-2.3-1.2-3.8h3.4
		c0.2,1.1,0.5,1.9,1,2.6c0.5,0.7,1.2,1.3,1.9,1.8c0.8,0.4,1.6,0.7,2.5,0.9c0.9,0.2,1.8,0.3,2.8,0.3c3.2,0,5.5-0.9,7-2.7
		c1.4-1.8,2.1-4.5,2.1-7.9v-3.8H176c-0.8,1.8-2,3.2-3.6,4.2c-1.5,1.1-3.3,1.6-5.4,1.6c-2.3,0-4.2-0.4-5.8-1.1
		c-1.6-0.8-2.9-1.8-4-3.1c-1-1.3-1.8-2.8-2.2-4.6c-0.5-1.8-0.7-3.7-0.7-5.7c0-1.9,0.3-3.8,0.8-5.5c0.6-1.8,1.4-3.3,2.5-4.5
		c1.1-1.3,2.4-2.3,4-3.1c1.6-0.8,3.4-1.1,5.5-1.1c1.1,0,2,0.1,3,0.4c0.9,0.3,1.8,0.7,2.6,1.3c0.8,0.5,1.4,1.1,2,1.8
		c0.6,0.7,1.1,1.4,1.4,2.2h0.1v-4.9h3.4V105.2z M167.1,104.3c1.5,0,2.8-0.3,3.9-0.9c1.1-0.7,2.1-1.5,2.8-2.5
		c0.8-1.1,1.3-2.3,1.7-3.6c0.4-1.4,0.6-2.7,0.6-4.2c0-1.4-0.2-2.8-0.5-4.2c-0.3-1.4-0.9-2.6-1.6-3.8c-0.7-1.1-1.7-2-2.8-2.7
		c-1.1-0.7-2.5-1-4.2-1c-1.6,0-3,0.3-4.2,1c-1.2,0.7-2.1,1.5-2.9,2.6c-0.8,1.1-1.3,2.4-1.7,3.8c-0.3,1.4-0.5,2.8-0.5,4.3
		c0,1.4,0.2,2.8,0.5,4.2c0.4,1.4,0.9,2.6,1.7,3.6c0.8,1,1.7,1.9,2.9,2.5C164.1,104,165.5,104.3,167.1,104.3z M209.6,107.5h-3.2v-5.1
		h-0.1c-0.9,1.9-2.2,3.4-4,4.4c-1.7,1-3.6,1.5-5.7,1.5c-1.8,0-3.3-0.3-4.6-0.8c-1.2-0.5-2.3-1.2-3.1-2.1c-0.8-0.9-1.3-2-1.7-3.3
		c-0.4-1.3-0.5-2.8-0.5-4.5V79.2h3.4v18.4c0.1,2.6,0.7,4.5,1.8,5.8c1.1,1.3,3.1,2,5.8,2c1.5,0,2.8-0.3,3.8-0.9
		c1.1-0.7,1.9-1.5,2.6-2.6c0.7-1.1,1.2-2.3,1.5-3.6c0.3-1.4,0.5-2.8,0.5-4.2V79.2h3.4V107.5z M216.6,79.2h3.4v4.9h0.1
		c0.7-1.7,1.8-3.1,3.5-4.1c1.7-1.1,3.5-1.6,5.5-1.6c2,0,3.6,0.3,4.9,0.8c1.3,0.5,2.4,1.2,3.2,2.2c0.8,0.9,1.4,2,1.7,3.4
		c0.3,1.4,0.5,2.9,0.5,4.5v18.2H236V89.9c0-1.2-0.1-2.3-0.3-3.3c-0.2-1.1-0.6-2-1.1-2.7c-0.5-0.8-1.3-1.4-2.2-1.8
		c-0.9-0.4-2.1-0.7-3.4-0.7c-1.4,0-2.6,0.3-3.7,0.8c-1.1,0.5-2,1.1-2.7,2c-0.7,0.8-1.3,1.9-1.8,3.1c-0.4,1.2-0.6,2.4-0.7,3.8v16.5
		h-3.4V79.2z M270.4,105.2c0,2.1-0.2,4-0.7,5.6c-0.4,1.7-1.2,3.1-2.1,4.3c-1,1.2-2.3,2.1-3.9,2.7c-1.6,0.6-3.5,0.9-5.8,0.9
		c-1.4,0-2.8-0.2-4.2-0.5c-1.4-0.3-2.6-0.8-3.7-1.5c-1.1-0.7-2-1.6-2.7-2.7c-0.7-1.1-1.1-2.3-1.2-3.8h3.4c0.2,1.1,0.5,1.9,1,2.6
		c0.5,0.7,1.2,1.3,1.9,1.8c0.8,0.4,1.6,0.7,2.5,0.9c0.9,0.2,1.8,0.3,2.8,0.3c3.2,0,5.5-0.9,7-2.7c1.4-1.8,2.1-4.5,2.1-7.9v-3.8h-0.1
		c-0.8,1.8-2,3.2-3.6,4.2c-1.5,1.1-3.3,1.6-5.4,1.6c-2.3,0-4.2-0.4-5.8-1.1c-1.6-0.8-2.9-1.8-4-3.1c-1-1.3-1.8-2.8-2.2-4.6
		c-0.5-1.8-0.7-3.7-0.7-5.7c0-1.9,0.3-3.8,0.8-5.5c0.6-1.8,1.4-3.3,2.5-4.5c1.1-1.3,2.4-2.3,4-3.1c1.6-0.8,3.4-1.1,5.5-1.1
		c1.1,0,2,0.1,3,0.4c0.9,0.3,1.8,0.7,2.6,1.3c0.8,0.5,1.4,1.1,2,1.8c0.6,0.7,1.1,1.4,1.4,2.2h0.1v-4.9h3.4V105.2z M257.9,104.3
		c1.5,0,2.8-0.3,3.9-0.9c1.1-0.7,2.1-1.5,2.8-2.5c0.8-1.1,1.3-2.3,1.7-3.6c0.4-1.4,0.6-2.7,0.6-4.2c0-1.4-0.2-2.8-0.5-4.2
		c-0.3-1.4-0.9-2.6-1.6-3.8c-0.7-1.1-1.7-2-2.8-2.7c-1.1-0.7-2.5-1-4.2-1c-1.6,0-3,0.3-4.2,1c-1.2,0.7-2.1,1.5-2.9,2.6
		c-0.8,1.1-1.3,2.4-1.7,3.8c-0.3,1.4-0.5,2.8-0.5,4.3c0,1.4,0.2,2.8,0.5,4.2c0.4,1.4,0.9,2.6,1.7,3.6c0.8,1,1.7,1.9,2.9,2.5
		C254.9,104,256.3,104.3,257.9,104.3z M2,48.9V0h39.7v9.5H11.9v10.2H40v9.1H11.9v10.6h29.8v9.5H2z M51.1,48.9v-9.5h25.5
		c5.3,0,7.5-2.2,7.5-4.7c0-2.3-1.2-4.1-4.6-4.5c-2-0.2-13.3-1.7-15.6-2c-8.4-1.2-13.1-6.8-13.1-14c0-8.5,6-14,15.7-14.1h0.3h21.7
		v9.5H66.5c-3.7,0-6,1.8-6,4.9c0,1.6,1.1,3.6,5.1,4.2c1.2,0.2,12.6,1.6,14.7,1.9c9.1,1.1,13.5,7.5,13.5,14.3
		c0,9.3-7.1,14.1-17.2,14.1H51.1z M172.4,48.9V0H212v9.5h-29.8v10.2h28.1v9.1h-28.1v10.6H212v9.5H172.4z"/>
</g>
<g id="Ebene_1">
</g>
</svg>
