<svg width="137" height="23" viewBox="0 0 137 23" fill="none" xmlns="http://www.w3.org/2000/svg">
<path d="M0.919922 22H2.92992V11.68H13.1299V9.94005H2.92992V2.32005H14.8999V0.550049H0.919922V22Z" fill="#00378B"/>
<path d="M22.3022 22.39C25.7822 22.39 27.9722 20.38 28.6322 17.32H26.8322C26.2322 19.42 24.8822 20.8 22.3022 20.8C18.7622 20.8 17.0822 18.07 16.9922 14.59H28.8122C28.8422 10.24 27.1322 6.13005 22.1522 6.13005C17.8622 6.13005 15.0722 9.61005 15.0722 14.26C15.0722 18.91 17.6522 22.39 22.3022 22.39ZM17.0222 13.12C17.3522 10.03 19.0022 7.66005 22.1522 7.66005C25.3322 7.66005 26.7722 10.06 26.8622 13.12H17.0222Z" fill="#00378B"/>
<path d="M31.1166 22H32.9766V13.18C32.9766 11.35 33.7866 9.91005 34.9866 9.01005C35.9466 8.32005 37.1766 8.08005 38.2866 8.26005V6.43005C38.1666 6.40005 38.0166 6.37005 37.7766 6.37005C35.6166 6.37005 33.9966 7.57005 33.0366 9.37005H32.9766V6.49005H31.1166V22Z" fill="#00378B"/>
<path d="M40.3451 22H42.2051V12.16C42.2051 9.61005 44.3651 7.75005 47.0051 7.75005C49.1951 7.75005 50.5451 8.83005 50.5451 11.17V22H52.4051V10.99C52.4051 7.87005 50.3351 6.16005 47.4551 6.16005C44.9951 6.16005 43.3151 7.30005 42.2651 8.86005H42.2051V6.49005H40.3451V22Z" fill="#00378B"/>
<path d="M58.4707 22H60.5707L63.3007 12.1C63.6907 10.63 64.1107 8.59005 64.1107 8.59005H64.1707C64.1707 8.59005 64.5907 10.63 64.9807 12.1L67.6507 22H69.6907L74.5807 6.49005H72.6907L69.8107 16.09C69.3607 17.5901 68.7307 20.14 68.7307 20.14H68.6707C68.6707 20.14 68.1007 17.65 67.7407 16.24L65.1907 6.49005H63.1807L60.5407 16.24C60.1507 17.65 59.5507 20.14 59.5507 20.14H59.4907C59.4907 20.14 58.9207 17.62 58.5007 16.09L55.8007 6.49005H53.8507L58.4707 22Z" fill="#00378B"/>
<path d="M80.0529 22.3601C83.0229 22.3601 84.6129 20.9201 85.4829 19.6901H85.5729V20.0201C85.6629 21.5201 86.5029 22.2101 87.8529 22.2101C88.4529 22.2101 88.8429 22.09 89.1129 21.97V20.6201H89.0229C88.7529 20.6801 88.5429 20.74 88.3329 20.74C87.6729 20.71 87.3129 20.32 87.3129 19.39V10.96C87.3129 7.57005 85.2129 6.16005 81.8229 6.16005C77.8329 6.16005 75.8529 8.11005 75.6429 11.11H77.4729C77.6229 8.80005 79.0629 7.66005 81.8229 7.66005C84.2229 7.66005 85.5429 8.68005 85.5429 10.78V11.08C85.5429 12.64 84.4329 12.82 81.3729 13.18C77.8629 13.6 74.9829 14.35 74.9829 18.0401C74.9829 20.9201 77.1729 22.3601 80.0529 22.3601ZM80.3829 20.8601C78.5529 20.8601 76.9329 20.2001 76.9329 18.0401C76.9329 15.37 78.9429 14.98 81.5529 14.62C83.0529 14.41 84.5829 14.14 85.5729 13.6V16.39C85.5729 18.5201 83.7729 20.8601 80.3829 20.8601ZM78.6429 3.19005H80.4429V0.610048H78.6429V3.19005ZM83.3229 3.19005H85.1229V0.610048H83.3229V3.19005Z" fill="#00378B"/>
<path d="M90.8236 22H92.6836V13.18C92.6836 11.35 93.4936 9.91005 94.6936 9.01005C95.6536 8.32005 96.8836 8.08005 97.9936 8.26005V6.43005C97.8736 6.40005 97.7236 6.37005 97.4836 6.37005C95.3236 6.37005 93.7036 7.57005 92.7436 9.37005H92.6836V6.49005H90.8236V22Z" fill="#00378B"/>
<path d="M100.052 22H101.912V12.13C101.912 9.61005 104.042 7.75005 106.262 7.75005C108.062 7.75005 109.382 8.83005 109.382 11.14V22H111.242V12.13C111.242 9.37005 113.162 7.75005 115.442 7.75005C117.332 7.75005 118.712 8.83005 118.712 11.14V22H120.542V10.99C120.542 7.87005 118.502 6.16005 115.862 6.16005C113.672 6.16005 111.902 7.21005 110.882 8.98005H110.822C110.192 7.12005 108.572 6.16005 106.682 6.16005C104.462 6.16005 102.962 7.27005 101.972 8.83005H101.912V6.49005H100.052V22Z" fill="#00378B"/>
<path d="M129.997 22.39C133.477 22.39 135.667 20.38 136.327 17.32H134.527C133.927 19.42 132.577 20.8 129.997 20.8C126.457 20.8 124.778 18.07 124.688 14.59H136.508C136.538 10.24 134.828 6.13005 129.848 6.13005C125.558 6.13005 122.768 9.61005 122.768 14.26C122.768 18.91 125.347 22.39 129.997 22.39ZM124.717 13.12C125.047 10.03 126.698 7.66005 129.848 7.66005C133.028 7.66005 134.467 10.06 134.557 13.12H124.717Z" fill="#00378B"/>
</svg>
