<svg width="138" height="24" viewBox="0 0 138 24" fill="none" xmlns="http://www.w3.org/2000/svg">
<path d="M107.848 23.7857L114.216 0H138.001L131.633 23.7857H107.848Z" fill="#F6A800"/>
<path d="M66.9836 0L72.0006 17.5034H72.1073L76.7987 0H81.5928L75.2175 23.7857H69.2263L64.124 5.98586H64.031L58.9287 23.7857H52.9375L46.5627 0H51.3564L56.0478 17.5034H56.1544L61.1715 0H66.9836ZM0.953125 23.7857V0H20.2645V4.62911H5.77064V9.57854H19.4637V14.0188H5.77064V19.1566H20.2645V23.7857H0.953125ZM24.8927 23.7857V19.1566H37.3059C39.8802 19.1566 40.9522 18.0691 40.9522 16.8793C40.9522 15.7513 40.351 14.8863 38.7201 14.6867C37.7382 14.5664 32.246 13.8601 31.1112 13.7067C27.0254 13.142 24.7174 10.4188 24.7174 6.88744C24.7174 2.75244 27.6315 0.0579343 32.3682 0.00049026H32.523H43.1063V4.62911H32.3696C30.5709 4.62911 29.4273 5.48249 29.4273 6.99551C29.4273 7.76662 29.9692 8.74853 31.9247 9.04111C32.5025 9.12776 38.0401 9.83412 39.0726 9.95534C43.5152 10.4782 45.6626 13.6206 45.6626 16.9294C45.6626 21.4641 42.2262 23.7857 37.3059 23.7857H24.8927ZM83.9062 23.7857V0H103.218V4.62911H88.7237V9.57854H102.417V14.0188H88.7237V19.1566H103.218V23.7857H83.9062Z" fill="#FDFDFD"/>
</svg>
