<?xml version="1.0" encoding="UTF-8"?>
  <svg id="a" xmlns="http://www.w3.org/2000/svg" viewBox="0 0 50 50">
    <defs>
      <style>
        .b{stroke-width:2px;}.b,.c,.d{fill:#fff;stroke:#000;stroke-miterlimit:10;}.c{stroke-width:.5px;}
      </style>
    </defs>
    <polyline
      class="d"
      points="9.3 36.41 4.15 36.41 4.15 13.59 9.3 13.59"
    />
    <polyline
      class="d"
      points="40.7 36.41 45.31 36.41 45.31 13.59 40.7 13.59"
    />
    <g>
      <line class="b" x1="11.6" y1="18.71" x2="11.6" y2="31.32"/>
      <line class="d" x1="14.2" y1="18.71" x2="14.2" y2="31.32"/>
      <line class="d" x1="20.12" y1="18.71" x2="20.12" y2="31.32"/>
      <line class="c" x1="36.9" y1="18.68" x2="36.9" y2="31.29"/>
      <line class="c" x1="21.67" y1="18.68" x2="21.67" y2="31.29"/>
      <line class="c" x1="18.41" y1="18.68" x2="18.41" y2="31.29"/>
      <line class="c" x1="15.69" y1="18.68" x2="15.69" y2="31.29"/>
      <line class="d" x1="16.97" y1="18.71" x2="16.97" y2="31.32"/>
      <line class="d" x1="23.13" y1="18.71" x2="23.13" y2="31.32"/>
      <line class="d" x1="27.69" y1="18.71" x2="27.69" y2="31.32"/>
      <line class="d" x1="35.41" y1="18.68" x2="35.41" y2="31.29"/>
      <line class="d" x1="38.4" y1="18.68" x2="38.4" y2="31.29"/>
      <line class="d" x1="29.76" y1="18.68" x2="29.76" y2="31.29"/>
      <line class="b" x1="33.04" y1="18.71" x2="33.04" y2="31.32"/>
      <line class="d" x1="23.12" y1="20.89" x2="27.69" y2="20.89"/>
      <line class="d" x1="23.12" y1="29.98" x2="27.69" y2="29.98"/>
      <line class="d" x1="23.09" y1="26.75" x2="27.67" y2="26.75"/>
    </g>
  </svg>
